<svg width="511" height="511" viewBox="0 0 511 511" fill="none" xmlns="http://www.w3.org/2000/svg">
<g clip-path="url(#clip0_37_7)">
<rect width="511" height="511" fill="white"/>
<path d="M314.11 5.61826C308.086 0.164593 303.34 -0.874186 292.61 0.618263C268.566 28.2977 256.11 49.6183 246.61 77.1183C205.11 18.1183 156.11 68.3511 139.11 22.1183C139.11 94.6183 206.11 79.1183 236.61 92.6183C169.61 87.1183 176.61 138.618 124.11 155.618C171.11 174.118 212.94 173.755 247.61 106.618C234.664 173.659 246.205 197.533 284.61 227.118C296.409 187.805 298.761 163.327 273.11 102.618C328.504 164.446 356.821 175.604 402.11 151.118C351.11 130.118 366.61 111.118 317.11 99.1183C365.93 106.661 380.609 93.4065 397.61 57.1183C362.11 77.6183 325.61 37.6183 277.11 81.6183C281.682 47.9599 289.799 29.6389 314.11 5.61826Z" fill="#0AA75B"/>
<path d="M413.11 82.1183C409.919 98.1627 399.279 104.676 375.11 113.118C390.61 120.618 410.61 134.618 429.61 134.618C420.61 199.118 355.61 200.118 321.61 175.618C319.534 224.872 313.516 244.732 292.11 263.118C251.401 251.028 237.813 231.966 222.11 186.618C146.11 208.618 92.6096 186.618 85.6096 149.118C119.819 135.757 137.354 126.356 155.11 101.118C140.11 95.1183 136.137 91.1911 128.61 70.6183C47.1096 94.1183 8.10956 134.618 0.109563 250.618C-5.39044 462.618 197.61 524.118 287.11 508.118C376.61 492.118 425.293 466.589 470.92 394.618C520.052 317.118 546.61 128.118 413.11 82.1183Z" fill="url(#paint0_radial_37_7)"/>
</g>
<defs>
<radialGradient id="paint0_radial_37_7" cx="0" cy="0" r="1" gradientUnits="userSpaceOnUse" gradientTransform="translate(170.5 313.5) rotate(66.5917) scale(215.213 250.003)">
<stop stop-color="#DAFFDD"/>
<stop offset="1" stop-color="#45CE51"/>
</radialGradient>
<clipPath id="clip0_37_7">
<rect width="511" height="511" fill="white"/>
</clipPath>
</defs>
</svg>
