<svg width="511" height="511" viewBox="0 0 511 511" fill="none" xmlns="http://www.w3.org/2000/svg">
<g clip-path="url(#clip0_1_14)">
<rect width="511" height="511" fill="white"/>
<path d="M164.089 130.689C114.645 101.786 119.322 38.8866 171.709 14.5655C266.636 -9.22371 277.511 64.7594 254.019 125.342C230.248 213.163 319.771 211.531 326.421 162.011C339.52 94.9449 396.893 64.774 441.5 102.423C487.278 146.625 467.205 235.67 376.722 226.95C318.474 221.322 305.676 298.288 379.771 304.109C496.878 311.084 534.167 384.853 492.561 434.748C434.447 489.932 355.603 418.579 327.184 363.7C302.475 329.8 264.245 364.101 278.409 387.384C325.585 458.286 289.03 501.136 238.78 498.918C190.197 495.822 162.617 465.917 190.764 392.739C204.924 347.276 159.532 336.695 130.553 372.887C88.0136 444.317 25.6665 422.716 7.09467 388.149C-4.68942 360.389 -3.51938 294.005 94.7359 301.836C155.375 316.905 137.526 256.082 92.4467 252.178C58.8531 250.564 -18.3848 225.573 9.38027 162.79C36.0516 122.519 100.07 119.925 130.557 185.713C141.593 201.128 160.938 225.933 196.098 204.045C208.852 185.115 200.495 153.415 164.089 130.703V130.689Z" fill="#CD2222"/>
<mask id="path-2-outside-1_1_14" maskUnits="userSpaceOnUse" x="127" y="122" width="234" height="276" fill="black">
<rect fill="white" x="127" y="122" width="234" height="276"/>
<path d="M311.6 321.8C316.5 321.8 320.233 323.433 322.8 326.7C325.367 329.967 326.65 334.05 326.65 338.95C326.65 345.017 324.667 350.5 320.7 355.4C316.967 360.067 311.833 362.4 305.3 362.4C294.1 362.4 277.417 361.583 255.25 359.95C250.817 359.717 242.65 359.25 230.75 358.55C218.85 357.85 209.517 357.5 202.75 357.5C199.717 357.5 195.283 358.55 189.45 360.65C188.283 360.883 185.95 361.467 182.45 362.4C179.183 363.333 176.383 363.8 174.05 363.8C170.317 363.8 167.167 362.167 164.6 358.9C162.267 355.4 161.1 350.267 161.1 343.5C161.1 336.033 162.85 330.317 166.35 326.35C169.85 322.15 175.333 318.417 182.8 315.15C198.667 308.15 213.6 299.283 227.6 288.55C241.833 277.583 253.15 265.8 261.55 253.2C270.183 240.6 274.5 228.583 274.5 217.15C274.5 208.05 272.4 201.4 268.2 197.2C264.233 192.767 257.817 190.55 248.95 190.55C238.683 190.55 230.4 193.35 224.1 198.95C218.033 204.55 215 212.367 215 222.4C215 236.167 208.117 243.05 194.35 243.05C187.817 243.05 182.683 241.183 178.95 237.45C175.45 233.717 173.7 228.35 173.7 221.35C173.7 209.683 176.733 198.95 182.8 189.15C188.867 179.35 197.967 171.533 210.1 165.7C222.233 159.633 237.05 156.6 254.55 156.6C275.55 156.6 292 161.85 303.9 172.35C315.8 182.85 321.75 197.433 321.75 216.1C321.75 233.833 313.933 252.383 298.3 271.75C282.9 291.117 260.617 308.267 231.45 323.2L311.6 321.8Z"/>
</mask>
<path d="M311.6 321.8C316.5 321.8 320.233 323.433 322.8 326.7C325.367 329.967 326.65 334.05 326.65 338.95C326.65 345.017 324.667 350.5 320.7 355.4C316.967 360.067 311.833 362.4 305.3 362.4C294.1 362.4 277.417 361.583 255.25 359.95C250.817 359.717 242.65 359.25 230.75 358.55C218.85 357.85 209.517 357.5 202.75 357.5C199.717 357.5 195.283 358.55 189.45 360.65C188.283 360.883 185.95 361.467 182.45 362.4C179.183 363.333 176.383 363.8 174.05 363.8C170.317 363.8 167.167 362.167 164.6 358.9C162.267 355.4 161.1 350.267 161.1 343.5C161.1 336.033 162.85 330.317 166.35 326.35C169.85 322.15 175.333 318.417 182.8 315.15C198.667 308.15 213.6 299.283 227.6 288.55C241.833 277.583 253.15 265.8 261.55 253.2C270.183 240.6 274.5 228.583 274.5 217.15C274.5 208.05 272.4 201.4 268.2 197.2C264.233 192.767 257.817 190.55 248.95 190.55C238.683 190.55 230.4 193.35 224.1 198.95C218.033 204.55 215 212.367 215 222.4C215 236.167 208.117 243.05 194.35 243.05C187.817 243.05 182.683 241.183 178.95 237.45C175.45 233.717 173.7 228.35 173.7 221.35C173.7 209.683 176.733 198.95 182.8 189.15C188.867 179.35 197.967 171.533 210.1 165.7C222.233 159.633 237.05 156.6 254.55 156.6C275.55 156.6 292 161.85 303.9 172.35C315.8 182.85 321.75 197.433 321.75 216.1C321.75 233.833 313.933 252.383 298.3 271.75C282.9 291.117 260.617 308.267 231.45 323.2L311.6 321.8Z" fill="white"/>
<path d="M311.6 321.8V287.8H311.303L311.006 287.805L311.6 321.8ZM322.8 326.7L296.065 347.706L296.065 347.706L322.8 326.7ZM320.7 355.4L294.274 334.007L294.212 334.084L294.15 334.16L320.7 355.4ZM255.25 359.95L257.748 326.042L257.393 326.016L257.037 325.997L255.25 359.95ZM230.75 358.55L228.753 392.491L230.75 358.55ZM189.45 360.65L196.118 393.99L198.592 393.495L200.966 392.64L189.45 360.65ZM182.45 362.4L173.689 329.548L173.399 329.626L173.109 329.708L182.45 362.4ZM164.6 358.9L136.31 377.76L137.046 378.863L137.865 379.906L164.6 358.9ZM166.35 326.35L191.844 348.845L192.162 348.485L192.47 348.116L166.35 326.35ZM182.8 315.15L196.428 346.299L196.476 346.278L196.524 346.257L182.8 315.15ZM227.6 288.55L248.287 315.533L248.319 315.508L248.351 315.483L227.6 288.55ZM261.55 253.2L233.502 233.982L233.38 234.16L233.26 234.34L261.55 253.2ZM268.2 197.2L242.862 219.871L243.491 220.574L244.158 221.242L268.2 197.2ZM224.1 198.95L201.512 173.538L201.273 173.75L201.038 173.967L224.1 198.95ZM178.95 237.45L154.146 260.704L154.521 261.104L154.908 261.492L178.95 237.45ZM182.8 189.15L211.709 207.046L211.709 207.046L182.8 189.15ZM210.1 165.7L224.832 196.343L225.07 196.228L225.305 196.111L210.1 165.7ZM303.9 172.35L326.395 146.856L326.395 146.856L303.9 172.35ZM298.3 271.75L271.844 250.394L271.766 250.491L271.688 250.589L298.3 271.75ZM231.45 323.2L215.955 292.936L232.044 357.195L231.45 323.2ZM311.6 355.8C310.291 355.8 307.656 355.578 304.447 354.174C301.072 352.698 298.177 350.394 296.065 347.706L349.535 305.694C339.328 292.704 324.835 287.8 311.6 287.8V355.8ZM296.065 347.706C294.734 346.011 293.804 344.163 293.252 342.407C292.719 340.712 292.65 339.467 292.65 338.95H360.65C360.65 327.854 357.617 315.981 349.535 305.694L296.065 347.706ZM292.65 338.95C292.65 338.201 292.786 337.163 293.19 336.048C293.587 334.949 294.067 334.262 294.274 334.007L347.126 376.793C355.785 366.096 360.65 353.128 360.65 338.95H292.65ZM294.15 334.16C295.417 332.577 297.391 330.875 299.981 329.698C302.48 328.562 304.479 328.4 305.3 328.4V396.4C321.062 396.4 336.407 390.193 347.25 376.64L294.15 334.16ZM305.3 328.4C295.393 328.4 279.723 327.661 257.748 326.042L252.752 393.858C275.11 395.506 292.807 396.4 305.3 396.4V328.4ZM257.037 325.997C252.723 325.77 244.655 325.309 232.747 324.609L228.753 392.491C240.645 393.191 248.911 393.663 253.463 393.903L257.037 325.997ZM232.747 324.609C220.599 323.894 210.499 323.5 202.75 323.5V391.5C208.534 391.5 217.101 391.806 228.753 392.491L232.747 324.609ZM202.75 323.5C193.512 323.5 184.431 326.321 177.934 328.66L200.966 392.64C201.99 392.272 202.842 391.989 203.535 391.776C204.233 391.562 204.709 391.438 204.986 391.372C205.273 391.304 205.244 391.324 204.947 391.366C204.671 391.404 203.901 391.5 202.75 391.5V323.5ZM182.782 327.31C180.382 327.79 177.004 328.664 173.689 329.548L191.211 395.252C192.866 394.811 194.139 394.48 195.071 394.247C196.128 393.983 196.361 393.941 196.118 393.99L182.782 327.31ZM173.109 329.708C172.478 329.889 172.228 329.926 172.31 329.913C172.361 329.904 172.531 329.877 172.809 329.852C173.087 329.827 173.506 329.8 174.05 329.8V397.8C180.622 397.8 186.737 396.536 191.791 395.092L173.109 329.708ZM174.05 329.8C177.338 329.8 181.024 330.569 184.538 332.391C187.944 334.157 190.128 336.358 191.335 337.894L137.865 379.906C146.049 390.321 158.611 397.8 174.05 397.8V329.8ZM192.89 340.04C194.518 342.482 195.017 344.394 195.13 344.89C195.241 345.38 195.1 345.027 195.1 343.5H127.1C127.1 353.253 128.618 366.221 136.31 377.76L192.89 340.04ZM195.1 343.5C195.1 342.339 195.245 342.512 194.923 343.565C194.565 344.736 193.693 346.75 191.844 348.845L140.856 303.855C129.986 316.174 127.1 331.135 127.1 343.5H195.1ZM192.47 348.116C191.821 348.895 191.557 348.958 192.222 348.504C192.886 348.052 194.202 347.273 196.428 346.299L169.172 284.001C159.048 288.43 148.359 294.83 140.23 304.584L192.47 348.116ZM196.524 346.257C214.91 338.146 232.175 327.885 248.287 315.533L206.913 261.567C195.025 270.682 182.423 278.154 169.076 284.043L196.524 346.257ZM248.351 315.483C264.988 302.665 279.041 288.258 289.84 272.06L233.26 234.34C227.259 243.342 218.679 252.502 206.849 261.617L248.351 315.483ZM289.598 272.418C300.829 256.026 308.5 237.403 308.5 217.15H240.5C240.5 219.764 239.538 225.174 233.502 233.982L289.598 272.418ZM308.5 217.15C308.5 203.734 305.511 186.428 292.242 173.158L244.158 221.242C241.777 218.86 240.812 216.552 240.503 215.576C240.244 214.756 240.5 215.076 240.5 217.15H308.5ZM293.538 174.529C280.503 159.96 262.706 156.55 248.95 156.55V224.55C250.697 224.55 250.577 224.786 249.311 224.349C247.828 223.837 245.258 222.549 242.862 219.871L293.538 174.529ZM248.95 156.55C232.256 156.55 215.323 161.262 201.512 173.538L246.688 224.362C246.536 224.497 246.353 224.63 246.167 224.737C245.984 224.843 245.885 224.873 245.925 224.86C246.009 224.831 246.89 224.55 248.95 224.55V156.55ZM201.038 173.967C186.528 187.361 181 205.083 181 222.4H249C249 220.783 249.245 220.611 248.972 221.313C248.835 221.665 248.606 222.136 248.257 222.651C247.907 223.167 247.522 223.601 247.162 223.933L201.038 173.967ZM181 222.4C181 224.042 180.612 219.029 185.796 213.846C190.979 208.662 195.992 209.05 194.35 209.05V277.05C206.474 277.05 221.812 273.996 233.879 261.929C245.946 249.862 249 234.524 249 222.4H181ZM194.35 209.05C194.29 209.05 195.412 209.04 197.219 209.697C199.156 210.401 201.223 211.639 202.992 213.408L154.908 261.492C166.461 273.044 181.068 277.05 194.35 277.05V209.05ZM203.754 214.196C205.75 216.325 206.828 218.523 207.337 220.084C207.802 221.508 207.7 222.094 207.7 221.35H139.7C139.7 233.767 142.852 248.657 154.146 260.704L203.754 214.196ZM207.7 221.35C207.7 215.924 209.013 211.401 211.709 207.046L153.891 171.254C144.454 186.499 139.7 203.442 139.7 221.35H207.7ZM211.709 207.046C213.821 203.634 217.543 199.847 224.832 196.343L195.368 135.057C178.391 143.22 163.912 155.066 153.891 171.254L211.709 207.046ZM225.305 196.111C231.551 192.988 240.848 190.6 254.55 190.6V122.6C233.252 122.6 212.915 126.279 194.895 135.289L225.305 196.111ZM254.55 190.6C269.989 190.6 277.493 194.393 281.405 197.844L326.395 146.856C306.507 129.307 281.111 122.6 254.55 122.6V190.6ZM281.405 197.844C284.683 200.737 287.75 205.299 287.75 216.1H355.75C355.75 189.568 346.917 164.963 326.395 146.856L281.405 197.844ZM287.75 216.1C287.75 223.454 284.534 234.674 271.844 250.394L324.756 293.106C343.333 270.093 355.75 244.213 355.75 216.1H287.75ZM271.688 250.589C260.112 265.146 242.141 279.529 215.955 292.936L246.945 353.464C279.092 337.005 305.688 317.088 324.912 292.911L271.688 250.589ZM232.044 357.195L312.194 355.795L311.006 287.805L230.856 289.205L232.044 357.195Z" fill="#C00909" fill-opacity="0.62" mask="url(#path-2-outside-1_1_14)"/>
</g>
<defs>
<clipPath id="clip0_1_14">
<rect width="511" height="511" fill="white"/>
</clipPath>
</defs>
</svg>
