<svg width="511" height="511" viewBox="0 0 511 511" fill="none" xmlns="http://www.w3.org/2000/svg">
<g clip-path="url(#clip0_1_18)">
<rect width="511" height="511" fill="white"/>
<path d="M164.089 130.689C114.645 101.786 119.322 38.8866 171.709 14.5655C266.636 -9.22371 277.511 64.7594 254.019 125.342C230.248 213.163 319.771 211.531 326.421 162.011C339.52 94.9449 396.893 64.774 441.5 102.423C487.278 146.625 467.205 235.67 376.722 226.95C318.474 221.322 305.676 298.288 379.771 304.109C496.878 311.084 534.167 384.853 492.561 434.748C434.447 489.932 355.603 418.579 327.184 363.7C302.475 329.8 264.245 364.101 278.409 387.384C325.585 458.286 289.03 501.136 238.78 498.918C190.197 495.822 162.617 465.917 190.764 392.739C204.924 347.276 159.532 336.695 130.553 372.887C88.0136 444.317 25.6665 422.716 7.09467 388.149C-4.68942 360.389 -3.51938 294.005 94.7359 301.836C155.375 316.905 137.526 256.082 92.4467 252.178C58.8531 250.564 -18.3848 225.573 9.38027 162.79C36.0516 122.519 100.07 119.925 130.557 185.713C141.593 201.128 160.938 225.933 196.098 204.045C208.852 185.115 200.495 153.415 164.089 130.703V130.689Z" fill="#CD2222"/>
<mask id="path-2-outside-1_1_18" maskUnits="userSpaceOnUse" x="120" y="122" width="230" height="275" fill="black">
<rect fill="white" x="120" y="122" width="230" height="275"/>
<path d="M269.25 261.25C281.15 262.883 291.067 267.783 299 275.95C307.167 284.117 311.25 294.383 311.25 306.75C311.25 318.65 307.633 328.8 300.4 337.2C293.167 345.6 283.367 352.017 271 356.45C258.867 360.65 245.567 362.75 231.1 362.75C205.667 362.75 186.533 358.317 173.7 349.45C161.1 340.583 154.8 329.5 154.8 316.2C154.8 308.5 156.667 302.55 160.4 298.35C164.133 293.917 169.15 291.7 175.45 291.7C180.817 291.7 184.783 293.1 187.35 295.9C190.15 298.467 192.483 303.017 194.35 309.55C195.983 315.85 199.367 320.633 204.5 323.9C209.633 327.167 217.567 328.8 228.3 328.8C238.567 328.8 246.967 326.933 253.5 323.2C260.267 319.233 263.65 313.283 263.65 305.35C263.65 297.183 260.5 291.233 254.2 287.5C247.9 283.533 238.1 281.317 224.8 280.85C219.9 280.617 216.167 278.983 213.6 275.95C211.267 272.683 210.1 268.833 210.1 264.4C210.1 258.8 211.033 254.833 212.9 252.5C215 249.933 218.5 248.183 223.4 247.25C238.8 244.917 249.883 240.483 256.65 233.95C263.65 227.183 267.15 219.133 267.15 209.8C267.15 196.967 258.283 190.55 240.55 190.55C220.95 190.55 209.4 198.25 205.9 213.65C204.267 219.95 201.817 224.5 198.55 227.3C195.517 229.867 191.2 231.15 185.6 231.15C179.3 231.15 174.4 229.4 170.9 225.9C167.633 222.167 166 217.267 166 211.2C166 201.867 169.267 193 175.8 184.6C182.333 176.2 191.55 169.433 203.45 164.3C215.583 159.167 229.7 156.6 245.8 156.6C268.2 156.6 285.35 160.917 297.25 169.55C309.15 178.183 315.1 191.017 315.1 208.05C315.1 219.25 310.783 229.75 302.15 239.55C293.75 249.117 282.783 256.35 269.25 261.25Z"/>
</mask>
<path d="M269.25 261.25C281.15 262.883 291.067 267.783 299 275.95C307.167 284.117 311.25 294.383 311.25 306.75C311.25 318.65 307.633 328.8 300.4 337.2C293.167 345.6 283.367 352.017 271 356.45C258.867 360.65 245.567 362.75 231.1 362.75C205.667 362.75 186.533 358.317 173.7 349.45C161.1 340.583 154.8 329.5 154.8 316.2C154.8 308.5 156.667 302.55 160.4 298.35C164.133 293.917 169.15 291.7 175.45 291.7C180.817 291.7 184.783 293.1 187.35 295.9C190.15 298.467 192.483 303.017 194.35 309.55C195.983 315.85 199.367 320.633 204.5 323.9C209.633 327.167 217.567 328.8 228.3 328.8C238.567 328.8 246.967 326.933 253.5 323.2C260.267 319.233 263.65 313.283 263.65 305.35C263.65 297.183 260.5 291.233 254.2 287.5C247.9 283.533 238.1 281.317 224.8 280.85C219.9 280.617 216.167 278.983 213.6 275.95C211.267 272.683 210.1 268.833 210.1 264.4C210.1 258.8 211.033 254.833 212.9 252.5C215 249.933 218.5 248.183 223.4 247.25C238.8 244.917 249.883 240.483 256.65 233.95C263.65 227.183 267.15 219.133 267.15 209.8C267.15 196.967 258.283 190.55 240.55 190.55C220.95 190.55 209.4 198.25 205.9 213.65C204.267 219.95 201.817 224.5 198.55 227.3C195.517 229.867 191.2 231.15 185.6 231.15C179.3 231.15 174.4 229.4 170.9 225.9C167.633 222.167 166 217.267 166 211.2C166 201.867 169.267 193 175.8 184.6C182.333 176.2 191.55 169.433 203.45 164.3C215.583 159.167 229.7 156.6 245.8 156.6C268.2 156.6 285.35 160.917 297.25 169.55C309.15 178.183 315.1 191.017 315.1 208.05C315.1 219.25 310.783 229.75 302.15 239.55C293.75 249.117 282.783 256.35 269.25 261.25Z" fill="white"/>
<path d="M269.25 261.25L257.675 229.281L264.627 294.934L269.25 261.25ZM299 275.95L274.613 299.641L274.784 299.817L274.958 299.992L299 275.95ZM300.4 337.2L326.164 359.386L326.164 359.386L300.4 337.2ZM271 356.45L282.122 388.58L282.298 388.518L282.474 388.456L271 356.45ZM173.7 349.45L154.133 377.255L154.253 377.34L154.373 377.423L173.7 349.45ZM160.4 298.35L185.812 320.938L186.114 320.598L186.407 320.251L160.4 298.35ZM187.35 295.9L162.287 318.875L163.286 319.964L164.375 320.963L187.35 295.9ZM194.35 309.55L227.262 301.017L227.157 300.612L227.042 300.209L194.35 309.55ZM253.5 323.2L270.369 352.72L270.532 352.627L270.694 352.532L253.5 323.2ZM254.2 287.5L236.084 316.272L236.472 316.516L236.867 316.75L254.2 287.5ZM224.8 280.85L223.183 314.812L223.395 314.822L223.608 314.829L224.8 280.85ZM213.6 275.95L185.933 295.712L186.744 296.847L187.645 297.912L213.6 275.95ZM212.9 252.5L186.585 230.97L186.467 231.114L186.35 231.26L212.9 252.5ZM223.4 247.25L218.307 213.634L217.67 213.73L217.038 213.85L223.4 247.25ZM256.65 233.95L280.266 258.41L280.273 258.403L280.281 258.396L256.65 233.95ZM205.9 213.65L238.812 222.183L238.941 221.686L239.055 221.185L205.9 213.65ZM198.55 227.3L220.512 253.255L220.595 253.185L220.677 253.115L198.55 227.3ZM170.9 225.9L145.312 248.289L146.058 249.141L146.858 249.942L170.9 225.9ZM175.8 184.6L202.638 205.474L202.638 205.474L175.8 184.6ZM203.45 164.3L190.202 132.987L190.092 133.034L189.983 133.081L203.45 164.3ZM297.25 169.55L317.216 142.03L317.216 142.03L297.25 169.55ZM302.15 239.55L276.638 217.075L276.619 217.096L276.601 217.117L302.15 239.55ZM264.627 294.934C269.452 295.596 272.271 297.23 274.613 299.641L323.388 252.259C309.862 238.336 292.848 230.17 273.873 227.566L264.627 294.934ZM274.958 299.992C276.266 301.299 277.25 302.694 277.25 306.75H345.25C345.25 286.072 338.067 266.934 323.042 251.908L274.958 299.992ZM277.25 306.75C277.25 311.155 276.148 313.258 274.636 315.014L326.164 359.386C339.119 344.342 345.25 326.145 345.25 306.75H277.25ZM274.636 315.014C271.892 318.201 267.388 321.626 259.526 324.444L282.474 388.456C299.345 382.407 314.442 372.999 326.164 359.386L274.636 315.014ZM259.878 324.32C251.745 327.136 242.255 328.75 231.1 328.75V396.75C248.878 396.75 265.989 394.164 282.122 388.58L259.878 324.32ZM231.1 328.75C208.608 328.75 197.616 324.648 193.027 321.477L154.373 377.423C175.451 391.986 202.725 396.75 231.1 396.75V328.75ZM193.267 321.645C190.227 319.505 189.293 318.054 189.083 317.686C188.971 317.488 188.929 317.364 188.9 317.254C188.87 317.136 188.8 316.817 188.8 316.2H120.8C120.8 342.438 134.133 363.181 154.133 377.255L193.267 321.645ZM188.8 316.2C188.8 315.025 188.95 315.154 188.641 316.14C188.294 317.246 187.474 319.068 185.812 320.938L134.988 275.762C123.961 288.167 120.8 303.273 120.8 316.2H188.8ZM186.407 320.251C185.133 321.764 183.199 323.359 180.704 324.462C178.286 325.53 176.332 325.7 175.45 325.7V257.7C160.11 257.7 145.198 263.619 134.393 276.449L186.407 320.251ZM175.45 325.7C175.321 325.7 168.457 325.606 162.287 318.875L212.413 272.925C201.109 260.594 186.312 257.7 175.45 257.7V325.7ZM164.375 320.963C163.131 319.823 162.296 318.792 161.787 318.087C161.279 317.383 161.02 316.896 160.946 316.752C160.833 316.532 161.149 317.107 161.658 318.891L227.042 300.209C224.626 291.755 220.128 279.824 210.325 270.837L164.375 320.963ZM161.438 318.083C165.066 332.078 173.317 344.357 186.246 352.584L222.754 295.216C223.767 295.86 224.914 296.876 225.871 298.229C226.803 299.547 227.16 300.625 227.262 301.017L161.438 318.083ZM186.246 352.584C199.59 361.076 215.411 362.8 228.3 362.8V294.8C224.542 294.8 222.276 294.504 221.156 294.273C219.975 294.03 220.89 294.03 222.754 295.216L186.246 352.584ZM228.3 362.8C242.418 362.8 257.161 360.268 270.369 352.72L236.631 293.68C236.772 293.599 234.716 294.8 228.3 294.8V362.8ZM270.694 352.532C288.017 342.377 297.65 325.179 297.65 305.35H229.65C229.65 304.371 229.901 301.868 231.557 298.956C233.223 296.026 235.303 294.456 236.306 293.868L270.694 352.532ZM297.65 305.35C297.65 286.837 289.519 268.908 271.533 258.25L236.867 316.75C235.12 315.715 232.848 313.711 231.239 310.671C229.722 307.805 229.65 305.642 229.65 305.35H297.65ZM272.316 258.728C258.34 249.929 241.226 247.405 225.992 246.871L223.608 314.829C228.772 315.01 232.339 315.508 234.624 316.025C236.991 316.56 237.116 316.922 236.084 316.272L272.316 258.728ZM226.417 246.888C227.287 246.93 229.334 247.155 231.953 248.301C234.717 249.51 237.397 251.438 239.555 253.988L187.645 297.912C197.688 309.781 211.228 314.242 223.183 314.812L226.417 246.888ZM241.267 256.188C242.257 257.574 243.026 259.141 243.514 260.752C243.993 262.332 244.1 263.614 244.1 264.4H176.1C176.1 275.145 179.052 286.079 185.933 295.712L241.267 256.188ZM244.1 264.4C244.1 263.321 244.206 263.695 243.896 265.012C243.604 266.254 242.6 269.802 239.45 273.74L186.35 231.26C176.96 242.998 176.1 256.949 176.1 264.4H244.1ZM239.215 274.03C234.259 280.087 228.897 280.814 229.762 280.65L217.038 213.85C208.103 215.552 195.741 219.779 186.585 230.97L239.215 274.03ZM228.493 280.866C246.718 278.105 266.068 272.118 280.266 258.41L233.034 209.49C233.546 208.996 233.145 209.603 230.635 210.607C228.123 211.612 224.16 212.747 218.307 213.634L228.493 280.866ZM280.281 258.396C293.587 245.532 301.15 228.787 301.15 209.8H233.15C233.15 209.998 233.133 209.998 233.163 209.848C233.177 209.778 233.199 209.689 233.231 209.585C233.264 209.481 233.302 209.378 233.345 209.281C233.387 209.183 233.427 209.105 233.46 209.048C233.492 208.991 233.509 208.967 233.503 208.976C233.493 208.99 233.362 209.173 233.019 209.504L280.281 258.396ZM301.15 209.8C301.15 194.622 295.306 178.582 280.433 167.819C267.599 158.53 252.502 156.55 240.55 156.55V224.55C241.753 224.55 242.654 224.605 243.288 224.671C243.601 224.703 243.832 224.736 243.989 224.762C244.147 224.789 244.219 224.806 244.214 224.805C244.21 224.804 244.119 224.782 243.953 224.727C243.787 224.673 243.537 224.582 243.218 224.444C242.578 224.166 241.645 223.687 240.567 222.906C238.212 221.202 236.024 218.682 234.606 215.602C233.273 212.708 233.15 210.485 233.15 209.8H301.15ZM240.55 156.55C226.693 156.55 211.549 159.221 198.328 168.035C184.295 177.39 176.139 191.183 172.745 206.115L239.055 221.185C239.166 220.694 239.131 221.169 238.522 222.104C237.869 223.106 236.968 224.001 236.047 224.615C235.201 225.179 234.853 225.165 235.518 225C236.231 224.824 237.817 224.55 240.55 224.55V156.55ZM172.988 205.117C172.688 206.276 172.551 206.319 172.901 205.668C173.272 204.98 174.31 203.296 176.423 201.485L220.677 253.115C231.292 244.016 236.275 231.97 238.812 222.183L172.988 205.117ZM176.588 201.345C181.788 196.944 186.412 197.15 185.6 197.15V265.15C195.988 265.15 209.245 262.789 220.512 253.255L176.588 201.345ZM185.6 197.15C185.551 197.15 186.734 197.139 188.635 197.818C190.678 198.548 192.95 199.867 194.942 201.858L146.858 249.942C158.354 261.437 172.865 265.15 185.6 265.15V197.15ZM196.488 203.511C197.95 205.182 198.929 207.02 199.48 208.673C199.739 209.45 199.87 210.084 199.935 210.523C200 210.957 200 211.195 200 211.2H132C132 223.587 135.482 237.054 145.312 248.289L196.488 203.511ZM200 211.2C200 210.469 200.064 208.784 202.638 205.474L148.962 163.726C138.47 177.216 132 193.264 132 211.2H200ZM202.638 205.474C204.968 202.479 209.138 198.875 216.917 195.519L189.983 133.081C173.962 139.992 159.699 149.921 148.962 163.726L202.638 205.474ZM216.698 195.613C223.819 192.6 233.267 190.6 245.8 190.6V122.6C226.133 122.6 207.347 125.733 190.202 132.987L216.698 195.613ZM245.8 190.6C264.562 190.6 273.513 194.334 277.284 197.07L317.216 142.03C297.187 127.499 271.838 122.6 245.8 122.6V190.6ZM277.284 197.07C278.883 198.23 281.1 199.933 281.1 208.05H349.1C349.1 182.1 339.417 158.137 317.216 142.03L277.284 197.07ZM281.1 208.05C281.1 209.626 280.764 212.391 276.638 217.075L327.662 262.025C340.803 247.109 349.1 228.874 349.1 208.05H281.1ZM276.601 217.117C272.452 221.842 266.535 226.073 257.675 229.281L280.825 293.219C299.032 286.627 315.048 276.392 327.699 261.983L276.601 217.117Z" fill="#C00909" fill-opacity="0.62" mask="url(#path-2-outside-1_1_18)"/>
</g>
<defs>
<clipPath id="clip0_1_18">
<rect width="511" height="511" fill="white"/>
</clipPath>
</defs>
</svg>
