<svg width="511" height="511" viewBox="0 0 511 511" fill="none" xmlns="http://www.w3.org/2000/svg">
<rect width="511" height="511" fill="white"/>
<path d="M164.089 130.689C114.645 101.786 119.322 38.8866 171.709 14.5655C266.636 -9.22371 277.511 64.7594 254.019 125.342C230.248 213.163 319.771 211.531 326.421 162.011C339.52 94.9449 396.893 64.774 441.5 102.423C487.278 146.625 467.205 235.67 376.722 226.95C318.474 221.322 305.676 298.288 379.771 304.109C496.878 311.084 534.167 384.853 492.561 434.748C434.447 489.932 355.603 418.579 327.184 363.7C302.475 329.8 264.245 364.101 278.409 387.384C325.585 458.286 289.03 501.136 238.78 498.918C190.197 495.822 162.617 465.917 190.764 392.739C204.924 347.276 159.532 336.695 130.553 372.887C88.0136 444.317 25.6665 422.716 7.09467 388.149C-4.68942 360.389 -3.51938 294.005 94.7359 301.836C155.375 316.905 137.526 256.082 92.4467 252.178C58.8531 250.564 -18.3848 225.573 9.38027 162.79C36.0516 122.519 100.07 119.925 130.557 185.713C141.593 201.128 160.938 225.933 196.098 204.045C208.852 185.115 200.495 153.415 164.089 130.703V130.689Z" fill="#CD2222"/>
</svg>
